<?xml version="1.0" encoding="UTF-8" standalone="no"?>
<!-- Generator: Adobe Illustrator 19.0.0, SVG Export Plug-In . SVG Version: 6.00 Build 0)  -->

<svg
   xmlns:dc="http://purl.org/dc/elements/1.1/"
   xmlns:cc="http://creativecommons.org/ns#"
   xmlns:rdf="http://www.w3.org/1999/02/22-rdf-syntax-ns#"
   xmlns:svg="http://www.w3.org/2000/svg"
   xmlns="http://www.w3.org/2000/svg"
   xmlns:sodipodi="http://sodipodi.sourceforge.net/DTD/sodipodi-0.dtd"
   xmlns:inkscape="http://www.inkscape.org/namespaces/inkscape"
   version="1.1"
   id="Capa_1"
   x="0px"
   y="0px"
   viewBox="0 0 297.08 297.08"
   style="enable-background:new 0 0 297.08 297.08;"
   xml:space="preserve"
   sodipodi:docname="bishop-black.svg"
   inkscape:version="0.92.4 (5da689c313, 2019-01-14)"><metadata
   id="metadata41"><rdf:RDF><cc:Work
       rdf:about=""><dc:format>image/svg+xml</dc:format><dc:type
         rdf:resource="http://purl.org/dc/dcmitype/StillImage" /></cc:Work></rdf:RDF></metadata><defs
   id="defs39" /><sodipodi:namedview
   pagecolor="#ffffff"
   bordercolor="#666666"
   borderopacity="1"
   objecttolerance="10"
   gridtolerance="10"
   guidetolerance="10"
   inkscape:pageopacity="0"
   inkscape:pageshadow="2"
   inkscape:window-width="2560"
   inkscape:window-height="1377"
   id="namedview37"
   showgrid="false"
   inkscape:snap-text-baseline="true"
   inkscape:zoom="2.2468993"
   inkscape:cx="-33.184708"
   inkscape:cy="170.50016"
   inkscape:window-x="1912"
   inkscape:window-y="-8"
   inkscape:window-maximized="1"
   inkscape:current-layer="g4" />
<g
   id="g4">
	<path
   d="m 201.36345,240.50795 h -2.95784 c 1.92043,-2.89452 7.21679,-12.60856 -0.61759,-22.20549 -7.71988,-9.45902 -21.80388,-34.30228 -21.20624,-55.86069 h 3.09662 c 3.83218,0 6.65037,-3.10703 6.65037,-6.93922 v -0.8674 c 0,-3.83218 -2.81819,-6.93921 -6.65037,-6.93921 h -3.75845 v -3.71682 c 11.27622,-7.78147 17.79128,-20.38568 17.79128,-34.62149 0,-8.96199 -6.08135,-22.647861 -13.72143,-36.188874 l -16.09291,16.129341 c -2.69849,2.698487 -7.09708,2.698487 -9.79644,8.67e-4 l -0.79888,-0.809286 c -2.69848,-2.69762 -2.69415,-7.114431 0.004,-9.812919 l 18.80181,-18.800071 c -3.85474,-6.131665 -7.69299,-11.864325 -11.01861,-16.674936 2.49898,-2.541488 4.04469,-6.02324 4.04469,-9.870168 8.7e-4,-7.776259 -6.3008,-14.080537 -14.0788,-14.080537 -7.77799,0 -14.0814,6.304278 -14.0814,14.080537 0,3.846061 1.54484,7.327812 4.04383,9.870168 -12.65106,18.303049 -32.90924,49.951079 -32.90924,66.155878 0,14.61833 7.09362,27.51747 18.36984,35.23821 v 3.1001 h -4.04816 c -3.83218,0 -7.22806,3.10703 -7.22806,6.93921 v 0.8674 c 0,3.83219 3.39588,6.93922 7.22806,6.93922 h 3.09749 c 0.59764,21.55928 -13.4855,46.40167 -21.20624,55.86069 -7.833512,9.59693 -2.53802,19.31097 -0.61759,22.20549 h -2.95871 c -3.832185,0 -7.228064,3.10703 -7.228064,6.93922 v 7.80661 c 0,3.53727 2.602206,6.45174 6.071814,6.87937 v 14.80568 h 102.35344 v -14.80568 c 3.46961,-0.42763 6.07181,-3.3421 6.07181,-6.87937 v -7.80661 c 0,-3.83219 -2.81819,-6.93922 -6.65037,-6.93922 z"
   id="path2"
   inkscape:connector-curvature="0"
   style="fill:#000000;fill-opacity:1;stroke:#000000;stroke-width:4.33700991;stroke-miterlimit:4;stroke-dasharray:none;stroke-opacity:1" />
</g>
<g
   id="g6">
</g>
<g
   id="g8">
</g>
<g
   id="g10">
</g>
<g
   id="g12">
</g>
<g
   id="g14">
</g>
<g
   id="g16">
</g>
<g
   id="g18">
</g>
<g
   id="g20">
</g>
<g
   id="g22">
</g>
<g
   id="g24">
</g>
<g
   id="g26">
</g>
<g
   id="g28">
</g>
<g
   id="g30">
</g>
<g
   id="g32">
</g>
<g
   id="g34">
</g>
</svg>