<?xml version="1.0" encoding="UTF-8" standalone="no"?>
<!-- Generator: Adobe Illustrator 17.1.0, SVG Export Plug-In . SVG Version: 6.00 Build 0)  -->

<svg
   xmlns:dc="http://purl.org/dc/elements/1.1/"
   xmlns:cc="http://creativecommons.org/ns#"
   xmlns:rdf="http://www.w3.org/1999/02/22-rdf-syntax-ns#"
   xmlns:svg="http://www.w3.org/2000/svg"
   xmlns="http://www.w3.org/2000/svg"
   xmlns:sodipodi="http://sodipodi.sourceforge.net/DTD/sodipodi-0.dtd"
   xmlns:inkscape="http://www.inkscape.org/namespaces/inkscape"
   version="1.1"
   id="Capa_1"
   x="0px"
   y="0px"
   viewBox="0 0 262.5 262.5"
   style="enable-background:new 0 0 262.5 262.5;"
   xml:space="preserve"
   sodipodi:docname="king-black.svg"
   inkscape:version="0.92.4 (5da689c313, 2019-01-14)"><metadata
   id="metadata39"><rdf:RDF><cc:Work
       rdf:about=""><dc:format>image/svg+xml</dc:format><dc:type
         rdf:resource="http://purl.org/dc/dcmitype/StillImage" /></cc:Work></rdf:RDF></metadata><defs
   id="defs37" /><sodipodi:namedview
   pagecolor="#ffffff"
   bordercolor="#666666"
   borderopacity="1"
   objecttolerance="10"
   gridtolerance="10"
   guidetolerance="10"
   inkscape:pageopacity="0"
   inkscape:pageshadow="2"
   inkscape:window-width="2560"
   inkscape:window-height="1377"
   id="namedview35"
   showgrid="false"
   inkscape:zoom="2.5428907"
   inkscape:cx="-51.414582"
   inkscape:cy="120.06434"
   inkscape:window-x="1912"
   inkscape:window-y="-8"
   inkscape:window-maximized="1"
   inkscape:current-layer="Capa_1" />
<path
   d="m 221.05613,244.46024 c 0,3.78922 -3.072,6.86123 -6.86122,6.86123 H 49.525469 c -3.789226,0 -6.861226,-3.07201 -6.861226,-6.86123 v -16.46695 c 0,-3.78922 3.072,-6.86122 6.861226,-6.86122 H 214.19491 c 3.78922,0 6.86122,3.072 6.86122,6.86122 z M 137.80658,57.210962 V 39.995688 h 8.53811 c 3.79015,0 6.86123,-3.071086 6.86123,-6.861228 0,-3.79014 -3.07108,-6.861226 -6.86123,-6.861226 h -8.53811 v -8.233471 c 0,-3.790142 -3.07108,-6.861227 -6.86123,-6.861227 -3.79013,0 -6.86121,3.071085 -6.86121,6.861227 v 8.233471 h -7.92884 c -3.79015,0 -6.86123,3.071086 -6.86123,6.861226 0,3.790142 3.07108,6.861228 6.86123,6.861228 h 7.92884 V 57.436925 C 103.04304,63.133573 86.956662,93.504106 86.956662,131.25 c 0,41.93673 19.665188,74.78737 44.673908,74.78737 25.00871,0 44.48362,-32.85064 44.48362,-74.78737 0,-38.28107 -16.35168,-68.975453 -38.30761,-74.039038 z m 94.04363,31.702526 c -1.20666,-0.376911 -2.46912,-0.56811 -3.75446,-0.56811 -14.49823,0 -28.90772,25.335302 -36.75605,50.446482 -4.4168,14.12864 -6.80542,28.0615 -6.72675,39.23067 0.12442,17.56748 6.38735,23.20467 11.62018,24.83947 1.20666,0.3769 2.47004,0.5681 3.75446,0.5681 14.49824,0 28.90772,-25.3353 36.75605,-50.44648 4.41588,-14.12863 6.8045,-28.0615 6.72674,-39.23066 -0.12349,-17.567486 -6.38734,-23.20467 -11.62017,-24.839472 z M 34.404242,88.345378 c -1.284422,0 -2.547803,0.191199 -3.754464,0.56811 -5.232829,1.634802 -11.495756,7.271986 -11.620173,24.839472 -0.07959,11.16916 2.309032,25.10111 6.726746,39.23066 7.848329,25.10843 22.257819,50.44557 36.756048,50.44648 h 9.15e-4 c 1.284421,0 2.547802,-0.1912 3.754463,-0.5681 5.232829,-1.6348 11.495756,-7.27199 11.620174,-24.83947 0.07867,-11.16917 -2.309947,-25.10112 -6.726747,-39.23067 C 63.311961,113.68068 48.90247,88.345378 34.404242,88.345378 Z"
   id="path2"
   inkscape:connector-curvature="0"
   style="fill:#000001;fill-opacity:1;stroke:#000002;stroke-width:4.85026741;stroke-miterlimit:4;stroke-dasharray:none;stroke-opacity:1" />
<g
   id="g4">
</g>
<g
   id="g6">
</g>
<g
   id="g8">
</g>
<g
   id="g10">
</g>
<g
   id="g12">
</g>
<g
   id="g14">
</g>
<g
   id="g16">
</g>
<g
   id="g18">
</g>
<g
   id="g20">
</g>
<g
   id="g22">
</g>
<g
   id="g24">
</g>
<g
   id="g26">
</g>
<g
   id="g28">
</g>
<g
   id="g30">
</g>
<g
   id="g32">
</g>
</svg>