<?xml version="1.0" encoding="iso-8859-1"?>
<!-- Generator: Adobe Illustrator 17.1.0, SVG Export Plug-In . SVG Version: 6.00 Build 0)  -->
<!DOCTYPE svg PUBLIC "-//W3C//DTD SVG 1.1//EN" "http://www.w3.org/Graphics/SVG/1.1/DTD/svg11.dtd">
<svg version="1.1" id="Capa_1" xmlns="http://www.w3.org/2000/svg" xmlns:xlink="http://www.w3.org/1999/xlink" x="0px" y="0px"
	 viewBox="0 0 262.5 262.5" style="enable-background:new 0 0 262.5 262.5;" xml:space="preserve">
<path d="M229.417,255c0,4.142-3.358,7.5-7.5,7.5h-180c-4.142,0-7.5-3.358-7.5-7.5v-18c0-4.142,3.358-7.5,7.5-7.5h180
	c4.142,0,7.5,3.358,7.5,7.5V255z M138.417,50.318V31.5h9.333c4.143,0,7.5-3.357,7.5-7.5s-3.357-7.5-7.5-7.5h-9.333v-9
	c0-4.143-3.357-7.5-7.5-7.5c-4.143,0-7.5,3.357-7.5,7.5v9h-8.667c-4.143,0-7.5,3.357-7.5,7.5s3.357,7.5,7.5,7.5h8.667v19.065
	c-23,6.227-40.584,39.425-40.584,80.685c0,45.841,21.496,81.75,48.833,81.75s48.625-35.909,48.625-81.75
	C180.291,89.405,162.417,55.853,138.417,50.318z M241.216,84.972c-1.319-0.412-2.699-0.621-4.104-0.621
	c-15.848,0-31.599,27.694-40.178,55.143c-4.828,15.444-7.439,30.674-7.353,42.883c0.136,19.203,6.982,25.365,12.702,27.152
	c1.319,0.412,2.7,0.621,4.104,0.621c15.848,0,31.599-27.694,40.178-55.143c4.827-15.444,7.438-30.674,7.353-42.883
	C253.783,92.921,246.936,86.759,241.216,84.972z M25.388,84.351c-1.404,0-2.785,0.209-4.104,0.621
	c-5.72,1.787-12.566,7.949-12.702,27.152c-0.087,12.209,2.524,27.438,7.353,42.883c8.579,27.446,24.33,55.142,40.178,55.143h0.001
	c1.404,0,2.785-0.209,4.104-0.621c5.72-1.787,12.566-7.949,12.702-27.152c0.086-12.209-2.525-27.438-7.353-42.883
	C56.987,112.045,41.236,84.351,25.388,84.351z"/>
<g>
</g>
<g>
</g>
<g>
</g>
<g>
</g>
<g>
</g>
<g>
</g>
<g>
</g>
<g>
</g>
<g>
</g>
<g>
</g>
<g>
</g>
<g>
</g>
<g>
</g>
<g>
</g>
<g>
</g>
</svg>
