<svg id="Capa_1" enable-background="new 0 0 512.006 512.006" height="512" viewBox="0 0 512.006 512.006" width="512" xmlns="http://www.w3.org/2000/svg"><path d="m61.003 451.006v46c0 8.28 6.72 15 15 15h360c8.28 0 15-6.72 15-15v-46z"/><path d="m91.003 376.006v45h330v-45c0-8.28-6.72-15-15-15h-300c-8.28 0-15 6.72-15 15z"/><path d="m110.703 331.006h275.72c-18.882-69.455-91.105-102.588-112.91-129.92-6.48-8.14-4.97-11.43-3.87-13.83 2.274-5.02 28.86-16.387 84.91 10.29 6.88 3.28 15.13.87 19.17-5.59l30-48c4.39-7.03 2.26-16.28-4.77-20.67l-110.05-68.78 11.36-34.85c3.436-10.52-5.369-21.067-16.38-19.5-112.346 16.052-222.88 82.422-222.88 195.85 0 58.198 32.306 98.707 49.7 135z"/></svg>