<?xml version="1.0" encoding="UTF-8" standalone="no"?>
<!-- Generator: Adobe Illustrator 19.0.0, SVG Export Plug-In . SVG Version: 6.00 Build 0)  -->

<svg
   xmlns:dc="http://purl.org/dc/elements/1.1/"
   xmlns:cc="http://creativecommons.org/ns#"
   xmlns:rdf="http://www.w3.org/1999/02/22-rdf-syntax-ns#"
   xmlns:svg="http://www.w3.org/2000/svg"
   xmlns="http://www.w3.org/2000/svg"
   xmlns:xlink="http://www.w3.org/1999/xlink"
   xmlns:sodipodi="http://sodipodi.sourceforge.net/DTD/sodipodi-0.dtd"
   xmlns:inkscape="http://www.inkscape.org/namespaces/inkscape"
   version="1.1"
   id="Capa_1"
   x="0px"
   y="0px"
   viewBox="0 0 297 297"
   style="enable-background:new 0 0 297 297;"
   xml:space="preserve"
   sodipodi:docname="pawn-white.svg"
   inkscape:version="0.92.4 (5da689c313, 2019-01-14)"><metadata
   id="metadata41"><rdf:RDF><cc:Work
       rdf:about=""><dc:format>image/svg+xml</dc:format><dc:type
         rdf:resource="http://purl.org/dc/dcmitype/StillImage" /></cc:Work></rdf:RDF></metadata><defs
   id="defs39"><linearGradient
     inkscape:collect="always"
     id="linearGradient860"><stop
       style="stop-color:#000000;stop-opacity:1;"
       offset="0"
       id="stop856" /><stop
       style="stop-color:#000000;stop-opacity:0;"
       offset="1"
       id="stop858" /></linearGradient><linearGradient
     inkscape:collect="always"
     id="linearGradient852"><stop
       style="stop-color:#000000;stop-opacity:1;"
       offset="0"
       id="stop848" /><stop
       style="stop-color:#000000;stop-opacity:0;"
       offset="1"
       id="stop850" /></linearGradient><linearGradient
     inkscape:collect="always"
     xlink:href="#linearGradient852"
     id="linearGradient854"
     x1="66"
     y1="148.5"
     x2="231"
     y2="148.5"
     gradientUnits="userSpaceOnUse" /><linearGradient
     inkscape:collect="always"
     xlink:href="#linearGradient860"
     id="linearGradient862"
     x1="65.5"
     y1="148.5"
     x2="231.5"
     y2="148.5"
     gradientUnits="userSpaceOnUse" /></defs><sodipodi:namedview
   pagecolor="#ffffff"
   bordercolor="#666666"
   borderopacity="1"
   objecttolerance="10"
   gridtolerance="10"
   guidetolerance="10"
   inkscape:pageopacity="0"
   inkscape:pageshadow="2"
   inkscape:window-width="2560"
   inkscape:window-height="1377"
   id="namedview37"
   showgrid="false"
   inkscape:zoom="1.5892256"
   inkscape:cx="65.686312"
   inkscape:cy="216.43111"
   inkscape:window-x="1912"
   inkscape:window-y="-8"
   inkscape:window-maximized="1"
   inkscape:current-layer="Capa_1" />
<g
   id="g4"
   transform="matrix(0.91101695,0,0,0.91101695,13.213983,13.213983)"
   style="fill-opacity:1;fill:#ffffff;stroke:#000000;stroke-opacity:1;stroke-width:5.48837209;stroke-miterlimit:4;stroke-dasharray:none">
	<path
   d="m 223.333,247 h -5.926 c 2.607,-3.811 10.798,-18.024 -0.727,-32.248 C 203.346,198.292 176.817,149.004 189.356,116 h 0.977 c 4.418,0 7.667,-3.582 7.667,-8 v -1 c 0,-4.418 -3.249,-8 -7.667,-8 h -1.225 c 10.917,-10.466 17.725,-25.184 17.725,-41.5 0,-31.756 -25.744,-57.5 -57.5,-57.5 -31.756,0 -57.5,25.744 -57.5,57.5 0,16.316 6.808,31.034 17.725,41.5 h -2.225 C 102.915,99 99,102.582 99,107 v 1 c 0,4.418 3.915,8 8.333,8 h 1.979 c 12.539,33.004 -13.99,82.292 -27.324,98.752 C 70.464,228.976 78.654,243.189 81.261,247 H 74.333 C 69.915,247 66,250.582 66,255 v 18 c 0,4.418 3.915,8 8.333,8 H 75 v 16 h 148 v -16 c 5,0 8,-3.582 8,-8 v -18 c 0,-4.418 -3.249,-8 -7.667,-8 z"
   id="path2"
   inkscape:connector-curvature="0"
   style="fill-opacity:1;fill:#ffffff;stroke:#000000;stroke-opacity:1;stroke-width:5.48837209;stroke-miterlimit:4;stroke-dasharray:none" />
</g>
<g
   id="g6">
</g>
<g
   id="g8">
</g>
<g
   id="g10">
</g>
<g
   id="g12">
</g>
<g
   id="g14">
</g>
<g
   id="g16">
</g>
<g
   id="g18">
</g>
<g
   id="g20">
</g>
<g
   id="g22">
</g>
<g
   id="g24">
</g>
<g
   id="g26">
</g>
<g
   id="g28">
</g>
<g
   id="g30">
</g>
<g
   id="g32">
</g>
<g
   id="g34">
</g>
</svg>