<?xml version="1.0" encoding="UTF-8" standalone="no"?>
<!-- Generator: Adobe Illustrator 18.1.1, SVG Export Plug-In . SVG Version: 6.00 Build 0)  -->

<svg
   xmlns:dc="http://purl.org/dc/elements/1.1/"
   xmlns:cc="http://creativecommons.org/ns#"
   xmlns:rdf="http://www.w3.org/1999/02/22-rdf-syntax-ns#"
   xmlns:svg="http://www.w3.org/2000/svg"
   xmlns="http://www.w3.org/2000/svg"
   xmlns:sodipodi="http://sodipodi.sourceforge.net/DTD/sodipodi-0.dtd"
   xmlns:inkscape="http://www.inkscape.org/namespaces/inkscape"
   version="1.1"
   id="Capa_1"
   x="0px"
   y="0px"
   viewBox="0 0 33.889 33.889"
   style="enable-background:new 0 0 33.889 33.889;"
   xml:space="preserve"
   sodipodi:docname="queen-white.svg"
   inkscape:version="0.92.4 (5da689c313, 2019-01-14)"><metadata
   id="metadata53"><rdf:RDF><cc:Work
       rdf:about=""><dc:format>image/svg+xml</dc:format><dc:type
         rdf:resource="http://purl.org/dc/dcmitype/StillImage" /></cc:Work></rdf:RDF></metadata><defs
   id="defs51" /><sodipodi:namedview
   pagecolor="#ffffff"
   bordercolor="#666666"
   borderopacity="1"
   objecttolerance="10"
   gridtolerance="10"
   guidetolerance="10"
   inkscape:pageopacity="0"
   inkscape:pageshadow="2"
   inkscape:window-width="2560"
   inkscape:window-height="1377"
   id="namedview49"
   showgrid="false"
   inkscape:zoom="13.927823"
   inkscape:cx="-5.235905"
   inkscape:cy="21.38349"
   inkscape:window-x="1912"
   inkscape:window-y="-8"
   inkscape:window-maximized="1"
   inkscape:current-layer="Capa_1" />
<g
   id="g16"
   transform="matrix(0.94394314,0,0,0.94394314,0.94985547,1.5960721)"
   style="fill:#ffffff;fill-opacity:1;stroke:#000000;stroke-width:0.56459332;stroke-miterlimit:4;stroke-dasharray:none;stroke-opacity:1">
	<path
   style="fill:#ffffff;fill-opacity:1;stroke:#000000;stroke-width:0.56459332;stroke-miterlimit:4;stroke-dasharray:none;stroke-opacity:1"
   d="m 9.036,10.132 c 0.914,0 1.651,-0.664 1.651,-1.483 0,-0.821 -0.737,-1.484 -1.651,-1.484 -0.909,0 -1.648,0.663 -1.648,1.484 0,0.82 0.739,1.483 1.648,1.483 z"
   id="path2"
   inkscape:connector-curvature="0" />
	<ellipse
   style="fill:#ffffff;fill-opacity:1;stroke:#000000;stroke-width:0.56459332;stroke-miterlimit:4;stroke-dasharray:none;stroke-opacity:1"
   cx="16.570999"
   cy="4.875"
   rx="2.8280001"
   ry="2.5439999"
   id="ellipse4" />
	<ellipse
   style="fill:#ffffff;fill-opacity:1;stroke:#000000;stroke-width:0.56459332;stroke-miterlimit:4;stroke-dasharray:none;stroke-opacity:1"
   cx="24.733999"
   cy="8.7340002"
   rx="1.649"
   ry="1.484"
   id="ellipse6" />
	<rect
   x="6.3579998"
   y="26.469"
   style="fill:#ffffff;fill-opacity:1;stroke:#000000;stroke-width:0.56459332;stroke-miterlimit:4;stroke-dasharray:none;stroke-opacity:1"
   width="20.426001"
   height="5.0900002"
   id="rect8" />
	<ellipse
   style="fill:#ffffff;fill-opacity:1;stroke:#000000;stroke-width:0.56459332;stroke-miterlimit:4;stroke-dasharray:none;stroke-opacity:1"
   cx="31.062"
   cy="8.1829996"
   rx="2.8269999"
   ry="2.5450001"
   id="ellipse10" />
	<path
   style="fill:#ffffff;fill-opacity:1;stroke:#000000;stroke-width:0.56459332;stroke-miterlimit:4;stroke-dasharray:none;stroke-opacity:1"
   d="M 5.657,8.276 C 5.657,6.868 4.391,5.732 2.826,5.732 1.269,5.731 0,6.868 0,8.276 c 0,1.405 1.269,2.544 2.826,2.544 1.566,0 2.831,-1.139 2.831,-2.544 z"
   id="path12"
   inkscape:connector-curvature="0" />
	<path
   style="fill:#ffffff;fill-opacity:1;stroke:#000000;stroke-width:0.56459332;stroke-miterlimit:4;stroke-dasharray:none;stroke-opacity:1"
   d="m 27.879,11.201 -3.873,3.485 0.326,-3.552 c 0,0 -0.533,-0.801 -1.229,-0.152 L 20.757,13.981 17.7,9.167 c 0,0 -0.842,-0.859 -2.263,0 l -2.98,4.693 -2.021,-2.878 c 0,0 -0.517,-0.817 -1.167,0.051 l 0.213,3.873 -3.818,-3.704 c 0,0 -1.18,-0.477 -1.743,0.67 l 2.466,13.579 h 20.362 l 3.395,-13.23 c 0,-10e-4 -0.381,-1.75 -2.265,-1.02 z"
   id="path14"
   inkscape:connector-curvature="0" />
</g>
<g
   id="g18">
</g>
<g
   id="g20">
</g>
<g
   id="g22">
</g>
<g
   id="g24">
</g>
<g
   id="g26">
</g>
<g
   id="g28">
</g>
<g
   id="g30">
</g>
<g
   id="g32">
</g>
<g
   id="g34">
</g>
<g
   id="g36">
</g>
<g
   id="g38">
</g>
<g
   id="g40">
</g>
<g
   id="g42">
</g>
<g
   id="g44">
</g>
<g
   id="g46">
</g>
</svg>