<svg id="Capa_1" enable-background="new 0 0 512 512" height="512" viewBox="0 0 512 512" width="512" 
    xmlns="http://www.w3.org/2000/svg">
    <path d="m347.19 170.682 48.657-47.686h-279.694l48.657 47.686-40.583 123.575h263.546z"/>
    <path d="m395.031 385.02h32.505v-30h-32.505v-30.764h-278.062v30.764h-32.505v30h32.505v30.002h278.063v-30.002zm-277.625-30h276.606v30h-276.606z"/>
    <path d="m396.048 0h-70.296v35.747h-40.082v-35.747h-59.697v35.747h-40.019v-35.747h-70.002v92.996h280.096z"/>
    <path d="m402.001 444.022h-292.002c-22.217 0-40.629 16.557-43.574 37.978h-25.12v30h429.391v-30h-25.12c-2.946-21.421-21.358-37.978-43.575-37.978z"/>
</svg>